<?xml version="1.0" encoding="UTF-8"?>
<svg id="Layer_2" data-name="Layer 2" xmlns="http://www.w3.org/2000/svg" width="317.2256" height="734.5879" viewBox="0 0 317.2256 734.5879">
  <g id="_Ñëîé_3" data-name="Ñëîé 3">
    <g>
      <path d="m0,72.7297s58.8027,147.0071,71.1823,230.569c12.3796,83.5619,20.1168,211.9996,20.1168,211.9996,0,0,10.8319,18.5694,44.8757,18.5694s49.5182-20.1168,49.5182-20.1168c0,0,4.6424-125.3429,20.1167-213.547C221.2841,211.9996,317.2256,0,317.2256,0,317.2256,0,92.8465,26.3066,0,72.7297Z" style="fill: #ffd733; stroke-width: 0px;"/>
      <path d="m119.1531,527.6779v57.2553h34.0437v-58.8027s-36.365,3.8686-34.0437,1.5474Z" style="fill: #ffd733; stroke-width: 0px;"/>
      <path d="m160.9336,553.2107h-47.9707c-6.4102,0-11.6055-5.1953-11.6055-11.6055s5.1953-11.6055,11.6055-11.6055h47.9707c6.4102,0,11.6055,5.1953,11.6055,11.6055s-5.1953,11.6055-11.6055,11.6055Z" style="fill: #ffe266; stroke-width: 0px;"/>
      <path d="m69.6349,656.1155s0-58.8027,49.5182-71.1823h34.0437s41.781,1.5474,52.6129,69.635c0,0-18.5691,17.0217-64.9925,17.0217s-71.1823-15.4744-71.1823-15.4744Z" style="fill: #ffd733; stroke-width: 0px;"/>
      <path d="m299.4145,2.2646c-24.0223,3.1915-69.6183,9.7125-119.766,19.2652-9.0414,53.5612-29.3652,178.9137-38.831,277.1265-12.3796,128.4379-4.6424,224.3792-4.6424,224.3792,0,0,35.5909,1.5474,38.6859-23.2116,0,0,4.6424-136.1751,27.854-258.4229,17.58-92.5875,71.5437-194.9206,96.6995-239.1364Z" style="fill: #fcab28; stroke-width: 0px;"/>
      <path d="m107.8333,668.776c-.0244-27.4195,9.7724-77.6532,9.7724-77.6532-26.9406,15.2276-35.2568,52.6025-37.7104,69.8801,6.4044,2.5633,15.7711,5.6073,27.938,7.7731Z" style="fill: #ffe266; stroke-width: 0px;"/>
      <g>
        <path d="m39.9595,642.7369l204.428,5.9147c6.9246.2003,12.4129,4.69,12.2584,10.0277l-1.9267,66.5992c-.1545,5.338-5.8931,9.5028-12.8178,9.3025l-204.428-5.9147c-6.9246-.2002-12.4131-4.69-12.2587-10.0277l1.927-66.5994c.1545-5.3377,5.8932-9.5025,12.8178-9.3023Z" style="fill: #fcab28; stroke-width: 0px;"/>
        <path d="m74.016,658.6099l135.4543,3.9191c3.2076.0928,5.7499,2.1724,5.6784,4.645l-1.0529,36.3936c-.0717,2.4725-2.7299,4.4019-5.9375,4.309l-135.4544-3.919c-3.2076-.0928-5.7498-2.1725-5.6783-4.645l1.0528-36.3936c.0715-2.4726,2.73-4.4019,5.9376-4.3091Z" style="fill: #ffe266; stroke-width: 0px;"/>
        <path d="m92.6876,659.1502l46.5895,1.348c1.1033.0317,1.9395,2.0622,1.868,4.5348l-1.0528,36.3935c-.0715,2.4726-1.024,4.4511-2.1272,4.4191l-46.5893-1.3479c-1.1033-.0318-1.9398-2.0623-1.8683-4.5348l1.0531-36.3936c.0715-2.4725,1.024-4.451,2.127-4.4191Z" style="fill: #ffd733; stroke-width: 0px;"/>
        <g style="opacity: .35;">
          <polygon points="47.1891 728.9474 81.9061 729.9519 171.0938 646.5309 131.2006 645.3769 47.1891 728.9474" style="fill: #fff; stroke-width: 0px;"/>
        </g>
        <g style="opacity: .35;">
          <polygon points="132.8959 731.4273 221.3756 647.9857 205.0713 647.514 115.7013 730.9296 132.8959 731.4273" style="fill: #fff; stroke-width: 0px;"/>
        </g>
      </g>
      <g style="opacity: .48;">
        <path d="m88.4071,247.02c13.0011,101.4082,15.6013,150.8122,15.6013,150.8122,0,0,15.6013-88.4071,10.4008-202.8164-3.109-68.399-10.8629-122.837-16.5982-155.5766-20.5585,5.2145-40.3466,10.91-58.1908,17.0709,13.4787,37.8313,39.3502,116.9034,48.7869,190.5099Z" style="fill: #fffffd; stroke-width: 0px;"/>
      </g>
      <path d="m15.6012,119.2766c21.5922-10.833,44.1906-19.6297,67.1234-27.2731,22.9461-7.6313,46.27-14.1888,69.8968-19.4022,23.6344-5.1411,47.4557-9.5529,71.499-12.2252l9.0035-1.0744c2.9962-.3923,6.0029-.696,9.0212-.8929l18.0753-1.4015c6.0182-.5117,12.0684-.5947,18.1032-.8081,6.0351-.2169,12.0697-.3698,18.1004-.4772-24.0291,2.4226-47.9804,4.9012-71.7575,8.6754-23.8107,3.4754-47.4357,8.0775-70.9088,13.2753l-17.5842,4.015-17.4802,4.4498c-11.6356,3.0347-23.2206,6.2769-34.7484,9.7198-23.0301,6.9584-45.9431,14.4278-68.3437,23.4193Z" style="fill: #fcab28; stroke-width: 0px;"/>
      <polygon points="98.1772 79.3785 106.7157 57.809 114.708 79.677 129.6712 88.2156 114.4092 96.2078 105.8707 123.6356 97.8784 95.9091 82.9152 87.3707 98.1772 79.3785" style="fill: #fff; stroke-width: 0px;"/>
      <polygon points="127.8484 148.2835 133.0891 135.0451 137.9944 148.4668 147.1784 153.7076 137.8111 158.6129 132.5707 175.4471 127.6651 158.4296 118.4812 153.1888 127.8484 148.2835" style="fill: #fff; stroke-width: 0px;"/>
    </g>
  </g>
</svg>